<svg width="38" height="49" viewBox="0 0 38 49" fill="none" xmlns="http://www.w3.org/2000/svg">
<path d="M19.9299 48.3819H14.5045C5.12875 48.3819 0.511719 44.4661 0.511719 36.9739V2.16675C2.92858 1.33137 9.59577 0 13.7711 0H19.8549C29.4557 0 36.2646 4.82949 36.2646 12.6698C36.2646 17.9953 33.2643 21.4238 28.2806 22.8248C33.331 24.1562 37.148 29.1249 37.148 33.3278C37.148 42.9868 29.089 48.3819 19.9299 48.3819Z" fill="url(#paint0_linear)"/>
<path d="M10.7462 9.63281H25.814C25.814 9.63281 26.5308 12.9047 24.3139 13.1744C24.3139 13.1744 23.4638 17.2643 19.8136 16.3071V18.6218C19.8136 18.6218 18.4468 18.1432 16.555 18.6218C14.6632 19.1004 14.7965 21.0061 14.2715 20.1881C13.7464 19.3701 15.1215 18.352 16.0966 17.8734C17.0717 17.3948 17.1383 16.4811 15.7716 16.6378C14.4048 16.7857 13.2964 16.1766 12.838 15.4978C12.838 15.4978 3.57894 15.7676 2.72887 15.2977C1.87881 14.8191 2.07882 12.574 5.27074 13.2528C8.46266 13.9315 10.5545 14.2709 11.5962 14.0707C12.638 13.8706 11.3962 12.5044 10.8128 12.165C10.2295 11.817 10.0295 9.63281 10.7462 9.63281Z" fill="white"/>
<path d="M28.7799 33.25C28.3799 31.9882 27.4298 31.3008 26.0547 31.3008C20.3876 31.3008 14.7288 31.3008 9.06166 31.3008C8.78664 31.3008 8.50328 31.3443 8.16992 31.3704C8.47828 35.321 10.5034 38.4449 13.7954 40.2114H20.0042C22.5044 39.5936 23.9295 38.0186 24.4545 36.4174C24.3962 36.3826 24.4545 36.4087 24.5045 36.4522C25.6963 37.3311 26.7881 37.3746 27.7965 36.5915C28.7632 35.8344 29.1632 34.4682 28.7799 33.25ZM26.1547 35.5211C25.4713 35.5298 24.8296 34.9033 24.7962 34.1985C24.7629 33.4936 25.4213 32.7627 26.1047 32.7453C26.8047 32.7279 27.4381 33.3979 27.4381 34.155C27.4548 34.8946 26.8714 35.5124 26.1547 35.5211Z" fill="white"/>
<defs>
<linearGradient id="paint0_linear" x1="18.8295" y1="0.331712" x2="18.8295" y2="48.4639" gradientUnits="userSpaceOnUse">
<stop stop-color="#E01E26"/>
<stop offset="0.1867" stop-color="#B52C27"/>
<stop offset="0.5987" stop-color="#5B2A22"/>
<stop offset="1" stop-color="#080505"/>
</linearGradient>
</defs>
</svg>
